<svg xmlns="http://www.w3.org/2000/svg" viewBox="0 0 512 512" width="512" height="512">
  <title>LEFTRACK</title>
  <defs>
    <linearGradient id="mp1" x1="0" y1="0" x2="1" y2="0"><stop offset="0" stop-color="#005ca9"/><stop offset="1" stop-color="#005ca9"/></linearGradient>
    <linearGradient id="mp2" x1="0" y1="0" x2="1" y2="0"><stop offset="0" stop-color="#243986"/><stop offset=".32" stop-color="#004c98"/><stop offset="1" stop-color="#0a5aa8"/></linearGradient>
    <linearGradient id="mp3" x1="0" y1="0" x2="1" y2="1"><stop offset="0" stop-color="#243986"/><stop offset=".28" stop-color="#0f6fbf"/><stop offset=".6" stop-color="#0086ce"/><stop offset="1" stop-color="#1f9ad8"/></linearGradient>
    <linearGradient id="mhl" x1="0" y1="0" x2="0" y2="1"><stop offset="0" stop-color="#5fa7d5" stop-opacity=".85"/><stop offset=".35" stop-color="#5fa7d5" stop-opacity="0"/></linearGradient>
  </defs>
  <path d="M36 196 L206 172 Q230 169 230 193 L230 472 L36 472 Z" fill="url(#mp1)"/>
  <path d="M150 128 L326 102 Q352 99 352 126 L352 472 L150 472 Z" fill="url(#mp2)"/>
  <path d="M272 64 L396 44 Q476 34 476 116 L476 472 L272 472 Z" fill="url(#mp3)"/>
  <path d="M272 64 L396 44 Q476 34 476 116 L476 472 L272 472 Z" fill="url(#mhl)"/>
  <path d="M78 236 h50 v138 h90 v50 h-140 Z" fill="#fff"/><path d="M252 236 h192 v50 h-71 v138 h-50 v-138 h-71 Z" fill="#fff"/>
</svg>
